<svg width="79" height="79" viewBox="0 0 79 79" fill="none" xmlns="http://www.w3.org/2000/svg">
<rect width="79" height="79" rx="4" fill="#8F5CFC"/>
<rect width="79" height="79" rx="4" fill="url(#paint0_linear_0_1)"/>
<path d="M55.29 34.0083C54.5783 25.77 48.4867 22 40 22C31.4283 22 25.415 25.8517 24.71 34.0083C21.3333 34.245 20 37.4733 20 41.0433C20 44.19 21.435 48.755 25.2933 49.6417C27.2817 55.5517 32.3417 58.6667 40 58.6667C47.6583 58.6667 52.7183 55.5517 54.7067 49.6417C58.565 48.755 60 44.19 60 41.0433C60 37.4967 58.6767 34.245 55.29 34.0083ZM53.3883 46.46C52.64 46.475 51.995 46.985 51.8067 47.7083C50.495 52.7683 46.5233 55.3333 40 55.3333C33.4767 55.3333 29.505 52.7683 28.195 47.7083C28.0067 46.985 27.3617 46.475 26.6133 46.46C23.055 46.3917 22.55 38.71 24.3867 37.515C24.84 37.22 25.41 37.3417 25.6467 37.4467C26.765 37.9467 28.025 37.1017 27.99 35.8783C27.8717 31.6683 29.5417 28.1333 33.3733 26.3683C32.2683 31.0733 37.0483 35.765 44.4933 34.0317C37.8067 32.2017 42.7333 23.6633 48.4133 27.4417C51.0933 29.47 52.1033 32.5617 52.0133 35.88C51.9783 37.1117 53.2517 37.945 54.3567 37.4483C54.5933 37.3417 55.1617 37.22 55.6167 37.5167C57.4517 38.71 56.9467 46.3917 53.3883 46.46ZM47.5 39.5C47.5 40.88 46.5667 42 45.4167 42C44.2667 42 43.3333 40.88 43.3333 39.5C43.3333 38.12 44.2667 37 45.4167 37C46.5667 37 47.5 38.12 47.5 39.5ZM34.5833 42C33.4333 42 32.5 40.88 32.5 39.5C32.5 38.12 33.4333 37 34.5833 37C35.7333 37 36.6667 38.12 36.6667 39.5C36.6667 40.88 35.7333 42 34.5833 42ZM33.3333 47H46.6667C46.6667 47 45.26 51.7917 40 51.7917C34.5833 51.7917 33.3333 47 33.3333 47Z" fill="white"/>
<defs>
<linearGradient id="paint0_linear_0_1" x1="0" y1="0" x2="79" y2="76.5" gradientUnits="userSpaceOnUse">
<stop stop-color="#4D1A51"/>
<stop offset="1" stop-color="#0C0E32"/>
</linearGradient>
</defs>
</svg>

