<svg width="79" height="79" viewBox="0 0 79 79" fill="none" xmlns="http://www.w3.org/2000/svg">
<rect width="79" height="79" rx="4" fill="#8F5CFC"/>
<rect width="79" height="79" rx="4" fill="url(#paint0_linear_0_1)"/>
<path fill-rule="evenodd" clip-rule="evenodd" d="M25.8508 52.7709C20.5367 49.4437 17 43.5384 17 36.8125C17 26.4298 25.4298 18 35.8125 18C42.2715 18 47.9761 21.2626 51.3642 26.2291C56.6782 29.5562 60.215 35.4616 60.215 42.1875C60.215 52.5702 51.7852 61 41.4025 61C34.9543 61 29.2586 57.7481 25.8687 52.796L25.8508 52.7709ZM41.4025 25.1667C50.7962 25.1667 58.4233 32.7938 58.4233 42.1875C58.4233 51.5812 50.7962 59.2083 41.4025 59.2083C32.0088 59.2083 24.3817 51.5812 24.3817 42.1875C24.3817 32.7938 32.0088 25.1667 41.4025 25.1667ZM42.2983 52.0417H40.469V50.4811C36.2712 49.94 35.8125 46.5771 35.8125 45.5648H37.7672C37.812 46.2904 38.0485 48.7432 41.6766 48.7432C42.7498 48.7432 43.626 48.4906 44.2799 47.9925C44.9267 47.498 45.2402 46.896 45.2402 46.1489C45.2402 44.7281 44.3211 43.6997 41.5315 43.0708C37.2888 42.1105 36.2945 40.566 36.2945 38.5325C36.2945 35.8289 38.4857 34.5622 40.469 34.2217V32.3333H42.2983V34.1519C46.7614 34.5013 47.1269 38.1204 47.1269 39.1166H45.1596C45.1596 37.0365 43.5149 35.9525 41.5835 35.9525C39.6538 35.9525 38.2617 36.9057 38.2617 38.4752C38.2617 39.8745 39.0482 40.5625 41.8343 41.2594C45.2008 42.1069 47.2075 43.232 47.2075 46.0629C47.2075 49.1875 44.5039 50.3503 42.2983 50.5295V52.0417ZM47.4046 24.355C44.3659 21.5242 40.2899 19.7917 35.8125 19.7917C26.4188 19.7917 18.7917 27.4188 18.7917 36.8125C18.7917 41.53 20.7141 45.8013 23.8191 48.8865L23.8119 48.8686C23.0236 46.7921 22.59 44.54 22.59 42.1875C22.59 31.8048 31.0198 23.375 41.4025 23.375C43.5005 23.375 45.5198 23.719 47.4046 24.355Z" fill="white"/>
<path d="M65.0607 4.93934C64.4749 4.35355 63.5251 4.35355 62.9393 4.93934L53.3934 14.4853C52.8076 15.0711 52.8076 16.0208 53.3934 16.6066C53.9792 17.1924 54.9289 17.1924 55.5147 16.6066L64 8.12132L72.4853 16.6066C73.0711 17.1924 74.0208 17.1924 74.6066 16.6066C75.1924 16.0208 75.1924 15.0711 74.6066 14.4853L65.0607 4.93934ZM65.5 8V6H62.5V8H65.5Z" fill="white"/>
<defs>
<linearGradient id="paint0_linear_0_1" x1="0" y1="0" x2="79" y2="76.5" gradientUnits="userSpaceOnUse">
<stop stop-color="#4D1A51"/>
<stop offset="1" stop-color="#0C0E32"/>
</linearGradient>
</defs>
</svg>
