<svg width="79" height="79" viewBox="0 0 79 79" fill="none" xmlns="http://www.w3.org/2000/svg">
<rect width="79" height="79" rx="4" fill="#8F5CFC"/>
<rect width="79" height="79" rx="4" fill="url(#paint0_linear_0_1)"/>
<path fill-rule="evenodd" clip-rule="evenodd" d="M52.75 33.0833H56.7308V54.3333H26.9808V47.25H23V26H52.75V33.0833ZM55.3142 34.5H28.3975V52.9167H55.3142V34.5ZM41.8558 35.9167C46.1568 35.9167 49.6475 39.4073 49.6475 43.7083C49.6475 48.0093 46.1568 51.5 41.8558 51.5C37.5548 51.5 34.0642 48.0093 34.0642 43.7083C34.0642 39.4073 37.5548 35.9167 41.8558 35.9167ZM41.8558 37.3333C45.3748 37.3333 48.2308 40.1893 48.2308 43.7083C48.2308 47.2273 45.3748 50.0833 41.8558 50.0833C38.3368 50.0833 35.4808 47.2273 35.4808 43.7083C35.4808 40.1893 38.3368 37.3333 41.8558 37.3333ZM42.5642 48.6667H41.1475V47.5277C40.0609 47.301 39.0537 46.5516 39.0537 45.1137H40.5015C40.5015 45.9509 40.9633 46.3688 41.887 46.3688C43.0444 46.3688 43.7669 45.0726 41.6504 44.3303C40.5624 43.9478 39.2704 43.3726 39.2704 41.9318C39.2704 40.8042 40.0822 40.0944 41.1475 39.8805V38.75H42.5642V39.8918C43.5615 40.1199 44.4242 40.8453 44.4242 42.1557H42.9821C42.9821 41.0393 41.9522 41.0563 41.8275 41.0563C41.0483 41.0563 40.7126 41.4686 40.7126 41.9375C40.7126 42.2874 40.9024 42.6416 42.0683 43.0255C43.5643 43.5128 44.4242 44.2226 44.4242 45.499C44.4242 46.4213 43.8916 47.3237 42.5642 47.5503V48.6667ZM51.3333 33.0833V27.4167H24.4167V45.8333H26.9808V33.0833H51.3333Z" fill="white"/>
<defs>
<linearGradient id="paint0_linear_0_1" x1="0" y1="0" x2="79" y2="76.5" gradientUnits="userSpaceOnUse">
<stop stop-color="#4D1A51"/>
<stop offset="1" stop-color="#0C0E32"/>
</linearGradient>
</defs>
</svg>
