<svg width="79" height="79" viewBox="0 0 79 79" fill="none" xmlns="http://www.w3.org/2000/svg">
<rect width="79" height="79" rx="4" fill="#8F5CFC"/>
<rect width="79" height="79" rx="4" fill="url(#paint0_linear_0_1)"/>
<path fill-rule="evenodd" clip-rule="evenodd" d="M26.8508 52.7709C21.5367 49.4437 18 43.5384 18 36.8125C18 26.4298 26.4298 18 36.8125 18C43.2715 18 48.9761 21.2626 52.3642 26.2291C57.6782 29.5562 61.215 35.4616 61.215 42.1875C61.215 52.5702 52.7852 61 42.4025 61C35.9543 61 30.2586 57.7481 26.8687 52.796L26.8508 52.7709ZM42.4025 25.1667C51.7962 25.1667 59.4233 32.7938 59.4233 42.1875C59.4233 51.5812 51.7962 59.2083 42.4025 59.2083C33.0088 59.2083 25.3817 51.5812 25.3817 42.1875C25.3817 32.7938 33.0088 25.1667 42.4025 25.1667ZM43.2983 52.0417H41.469V50.4811C37.2712 49.94 36.8125 46.5771 36.8125 45.5648H38.7672C38.812 46.2904 39.0485 48.7432 42.6766 48.7432C43.7498 48.7432 44.626 48.4906 45.2799 47.9925C45.9267 47.498 46.2402 46.896 46.2402 46.1489C46.2402 44.7281 45.3211 43.6997 42.5315 43.0708C38.2888 42.1105 37.2945 40.566 37.2945 38.5325C37.2945 35.8289 39.4857 34.5622 41.469 34.2217V32.3333H43.2983V34.1519C47.7614 34.5013 48.1269 38.1204 48.1269 39.1166H46.1596C46.1596 37.0365 44.5149 35.9525 42.5835 35.9525C40.6538 35.9525 39.2617 36.9057 39.2617 38.4752C39.2617 39.8745 40.0482 40.5625 42.8343 41.2594C46.2008 42.1069 48.2075 43.232 48.2075 46.0629C48.2075 49.1875 45.5039 50.3503 43.2983 50.5295V52.0417ZM48.4046 24.355C45.3659 21.5242 41.2899 19.7917 36.8125 19.7917C27.4188 19.7917 19.7917 27.4188 19.7917 36.8125C19.7917 41.53 21.7141 45.8013 24.8191 48.8865L24.8119 48.8686C24.0236 46.7921 23.59 44.54 23.59 42.1875C23.59 31.8048 32.0198 23.375 42.4025 23.375C44.5005 23.375 46.5198 23.719 48.4046 24.355Z" fill="white"/>
<defs>
<linearGradient id="paint0_linear_0_1" x1="0" y1="0" x2="79" y2="76.5" gradientUnits="userSpaceOnUse">
<stop stop-color="#4D1A51"/>
<stop offset="1" stop-color="#0C0E32"/>
</linearGradient>
</defs>
</svg>


